<svg width="24" height="23" viewBox="0 0 24 23" fill="none" xmlns="http://www.w3.org/2000/svg">
<path d="M12 1.67859C9.81275 1.68098 7.71583 2.48886 6.16921 3.92501C4.6226 5.36115 3.75257 7.30829 3.74999 9.3393C3.74737 10.999 4.33123 12.6138 5.41199 13.9357C5.41199 13.9357 5.63699 14.2108 5.67374 14.2505L12 21.1786L18.3292 14.247C18.3622 14.2101 18.588 13.9357 18.588 13.9357L18.5887 13.9336C19.669 12.6122 20.2526 10.9983 20.25 9.3393C20.2474 7.30829 19.3774 5.36115 17.8308 3.92501C16.2842 2.48886 14.1872 1.68098 12 1.67859ZM12 12.125C11.4066 12.125 10.8266 11.9616 10.3333 11.6555C9.83994 11.3494 9.45542 10.9144 9.22835 10.4054C9.00129 9.89633 8.94188 9.33621 9.05764 8.79584C9.17339 8.25546 9.45912 7.75909 9.87867 7.36951C10.2982 6.97992 10.8328 6.7146 11.4147 6.60712C11.9967 6.49963 12.5999 6.55479 13.148 6.76564C13.6962 6.97648 14.1648 7.33354 14.4944 7.79164C14.824 8.24975 15 8.78834 15 9.3393C14.999 10.0778 14.6826 10.7859 14.1202 11.3081C13.5578 11.8303 12.7953 12.1241 12 12.125Z" fill="white"/>
</svg>
