<svg width="24" height="23" viewBox="0 0 24 23" fill="none" xmlns="http://www.w3.org/2000/svg">
<path d="M20 10.2133H22C22 5.44976 18.127 1.85712 12.99 1.85712V3.71426C17.052 3.71426 20 6.44705 20 10.2133Z" fill="white"/>
<path d="M13 7.42855C15.103 7.42855 16 8.26148 16 10.2143H18C18 7.21962 16.225 5.57141 13 5.57141V7.42855ZM16.422 12.4828C16.2299 12.3206 15.9774 12.2341 15.7178 12.2415C15.4583 12.249 15.212 12.3498 15.031 12.5227L12.638 14.8079C12.062 14.7058 10.904 14.3705 9.71201 13.2665C8.52001 12.1587 8.15901 11.0806 8.05201 10.5495L10.511 8.32648C10.6974 8.15852 10.8061 7.92981 10.8142 7.68874C10.8222 7.44767 10.7289 7.21316 10.554 7.03483L6.85901 3.26205C6.68405 3.08317 6.44089 2.97466 6.18116 2.95958C5.92143 2.94449 5.66561 3.02402 5.46801 3.18126L3.29801 4.90933C3.12512 5.07046 3.02193 5.2849 3.00801 5.51198C2.99301 5.74412 2.70701 11.2431 7.29901 15.509C11.305 19.2279 16.323 19.5 17.705 19.5C17.907 19.5 18.031 19.4944 18.064 19.4925C18.3085 19.4798 18.5393 19.3836 18.712 19.2223L20.572 17.2064C20.7415 17.023 20.8273 16.7856 20.8112 16.5444C20.7952 16.3032 20.6785 16.0774 20.486 15.9148L16.422 12.4828Z" fill="white"/>
</svg>
